<svg fill="none" xmlns="http://www.w3.org/2000/svg">
<circle cx="17" cy="17" r="17" fill="#D72130"/>
<path d="M24.9818 10.4104C24.8616 9.95949 24.7814 9.70898 24.7814 9.70898C24.6511 9.24303 24.3205 9.24303 23.8295 9.16287L21.1691 8.82719C20.8384 8.77208 20.8384 8.77208 20.7081 8.4865C20.2723 7.50451 20.137 6.93335 19.661 6.93335H14.5005C14.0246 6.93335 13.8943 7.50451 13.4584 8.49151C13.3282 8.77208 13.3282 8.77208 12.9975 8.8322L10.3321 9.16788C9.84611 9.24804 9.4954 9.29313 9.36513 9.75908C9.36513 9.75908 9.30501 9.9645 9.17976 10.4104C9.01943 11.0066 8.9543 10.9415 9.50542 10.9415H24.6561C25.2073 10.9465 25.1471 11.0066 24.9818 10.4104Z" fill="white"/>
<path d="M23.2616 12.5447H10.8965C10.0648 12.5447 10.0247 12.6549 10.0748 13.2812L11.0117 25.4358C11.0919 26.0521 11.152 26.1773 11.8885 26.1773H22.2696C23.0061 26.1773 23.0662 26.0521 23.1463 25.4358L24.0832 13.2812C24.1333 12.6499 24.0933 12.5447 23.2616 12.5447Z" fill="white"/>
</svg>
