<svg transform="rotate(180 0 0) scale(-1, 1)" width="16" height="16" viewBox="0 0 16 16" fill="none" xmlns="http://www.w3.org/2000/svg">
<path d="M9.96182 6.16903L9.9605 6.16702C9.81666 5.94716 9.77715 5.6736 9.83848 5.42842L10.3235 5.54975L9.83776 5.43135C10.3869 3.17803 9.90914 2.09702 9.65803 1.71121C9.49539 1.46141 9.33215 1.34857 9.22332 1.30605V3.02823C9.22332 3.09498 9.21893 3.19359 9.18289 3.30496C8.54597 5.44562 7.85704 7.14423 6.52304 8.2156L6.51927 13.9126C6.56366 13.9469 6.62175 13.9861 6.68884 14.0248C6.77268 14.0732 6.85889 14.1143 6.93398 14.1419C7.0035 14.1674 7.04037 14.1729 7.04781 14.174C7.04927 14.1742 7.0496 14.1743 7.04883 14.1743H13.1831C13.1972 14.1596 13.2137 14.1404 13.2321 14.116C13.3186 14.0002 13.4016 13.8295 13.4574 13.6421C13.5141 13.4514 13.5294 13.2879 13.5182 13.1887C13.4793 12.8607 13.6146 12.5029 13.9221 12.3088L13.9238 12.3077C14.0802 12.2098 14.2795 11.8914 14.2148 10.9364C14.1972 10.6785 14.2849 10.4047 14.4861 10.21C14.5923 10.1068 14.6614 9.92179 14.6691 9.67572C14.6727 9.55925 14.6615 9.44653 14.6429 9.35285C14.6336 9.30637 14.6231 9.26769 14.6133 9.23806C14.6084 9.22339 14.604 9.21206 14.6006 9.20391C14.597 9.19554 14.5951 9.19221 14.5955 9.19295L15.0324 8.94967L14.596 9.19373C14.4688 8.96639 14.4372 8.68108 14.5302 8.42221C14.5776 8.28736 14.6554 8.16653 14.7575 8.07008C14.7637 8.04384 14.7706 8.01054 14.7777 7.96946C14.8011 7.83385 14.8214 7.63769 14.8214 7.38108C14.8214 7.28114 14.7205 7.0764 14.4445 6.84831C14.3222 6.7473 14.1922 6.66489 14.0805 6.61001C13.9729 6.55715 13.9208 6.54863 13.921 6.54725C13.9211 6.547 13.9229 6.54699 13.9266 6.54699H10.6476C10.3561 6.54699 10.1086 6.39103 9.96182 6.16903ZM6.45146 13.853C6.45164 13.8532 6.45188 13.8535 6.45219 13.8538L6.45146 13.853Z" fill="#7F8899" stroke="#7F8899"/>
<path d="M1.09453 14.813C1.09453 14.8165 1.09474 14.8197 1.09508 14.8226L4.25569 14.8232C4.25603 14.8203 4.25624 14.8171 4.25624 14.8136V7.71163C4.25624 7.70784 4.25601 7.70441 4.25563 7.70135H1.09514C1.09476 7.70441 1.09453 7.70784 1.09453 7.71163V14.813ZM1.04281 14.8226H1.04291H1.04281Z" fill="#7F8899" stroke="#7F8899"/>
</svg>
