<svg width="36" height="32" viewBox="0 0 36 32" fill="none" xmlns="http://www.w3.org/2000/svg">
<path d="M0.810565 29.5807C0.810679 29.5805 0.810793 29.5803 0.810908 29.5801L17.2541 1.10068C17.2543 1.10029 17.2545 1.09991 17.2548 1.09952C17.3249 0.979705 17.4251 0.880284 17.5455 0.81112C17.6663 0.741732 17.8032 0.705218 17.9425 0.705218C18.0818 0.705218 18.2187 0.741732 18.3394 0.811118C18.4598 0.880277 18.5601 0.97968 18.6302 1.09947C18.6304 1.09987 18.6307 1.10027 18.6309 1.10067L35.0741 29.5801C35.0742 29.5803 35.0742 29.5804 35.0743 29.5805C35.1436 29.7014 35.1799 29.8383 35.1798 29.9776C35.1796 30.1171 35.1429 30.2541 35.0732 30.3749C35.0035 30.4957 34.9033 30.5961 34.7827 30.666C34.6623 30.7359 34.5258 30.7729 34.3866 30.7736H1.49838C1.35924 30.7729 1.22268 30.7359 1.10231 30.666C0.981668 30.5961 0.8815 30.4957 0.811818 30.3749C0.742135 30.2541 0.705378 30.1171 0.705218 29.9776C0.705059 29.8384 0.741382 29.7015 0.810565 29.5807Z" fill="white" stroke="white" stroke-width="1.41044"/>
<path d="M16.5326 25.0983L16.5332 25.0833V25.0683C16.5332 24.7894 16.616 24.5167 16.7709 24.2847C16.9259 24.0528 17.1462 23.872 17.4039 23.7652C17.6616 23.6585 17.9452 23.6306 18.2188 23.685C18.4924 23.7394 18.7437 23.8737 18.941 24.071C19.1382 24.2682 19.2726 24.5196 19.327 24.7931C19.3814 25.0667 19.3535 25.3503 19.2467 25.6081C19.14 25.8658 18.9592 26.0861 18.7273 26.241L19.1191 26.8274L18.7273 26.241C18.4953 26.396 18.2226 26.4787 17.9437 26.4787H17.9286L17.9136 26.4794C17.7302 26.4872 17.5471 26.4568 17.376 26.3902C17.2049 26.3236 17.0495 26.2221 16.9197 26.0923C16.7899 25.9624 16.6884 25.807 16.6218 25.636C16.5551 25.4649 16.5248 25.2818 16.5326 25.0983ZM18.5836 21.0768H17.2671L16.8026 11.909H19.0298L18.5836 21.0768Z" fill="#D72130" stroke="#D72130" stroke-width="1.41044"/>
</svg>
